<?xml version="1.0" encoding="UTF-8"?> <!-- Generator: Adobe Illustrator 27.2.0, SVG Export Plug-In . SVG Version: 6.00 Build 0) --> <svg xmlns="http://www.w3.org/2000/svg" xmlns:xlink="http://www.w3.org/1999/xlink" version="1.0" id="Layer_1" x="0px" y="0px" viewBox="0 0 556.527 223.2896" xml:space="preserve"> <g> <g> <defs> <rect id="SVGID_1_" x="3.8782" y="0.5288" width="548.7705" height="222.2321"></rect> </defs> <clipPath id="SVGID_00000093150036886187995550000014909339144078840750_"> <use xlink:href="#SVGID_1_" overflow="visible"></use> </clipPath> <path clip-path="url(#SVGID_00000093150036886187995550000014909339144078840750_)" fill="#0033A1" d="M266.5841,50.4989h-0.0971 l-4.3156,13.1335h8.6833L266.5841,50.4989z M259.8044,71.0615c-0.463,1.5754-1.0231,2.7849-1.0231,3.6211 c0,1.3963,1.9491,1.6203,3.4794,1.6203h0.5154v1.3963c-1.8593-0.0895-3.7633-0.1866-5.6149-0.1866 c-1.6725,0-3.345,0.0971-5.0175,0.1866v-1.3963h0.2762c1.8147,0,3.345-1.0602,4.0395-3.0164l7.4291-21.3018 c0.6047-1.7174,1.441-4.0395,1.7171-5.7566c1.4861-0.5152,3.345-1.4412,4.2263-2.0011c0.1417-0.0449,0.2315-0.0896,0.3732-0.0896 c0.1344,0,0.2315,0,0.3208,0.1417c0.1422,0.3659,0.2839,0.7841,0.4183,1.1573l8.5415,24.2811 c0.5601,1.6201,1.1124,3.3374,1.7176,4.7338c0.5596,1.299,1.5303,1.8516,3.0683,1.8516h0.2766v1.3963 c-2.0908-0.0895-4.1812-0.1866-6.4065-0.1866c-2.2772,0-4.5991,0.0971-6.9661,0.1866v-1.3963h0.515 c1.0677,0,2.8747-0.1791,2.8747-1.3439c0-0.5975-0.4179-1.8591-0.9256-3.3374l-1.8147-5.3909h-10.5353L259.8044,71.0615z"></path> </g> <g> <defs> <rect id="SVGID_00000134957454905375254590000015848386818866714789_" x="3.8782" y="0.5288" width="548.7705" height="222.2321"></rect> </defs> <clipPath id="SVGID_00000100380267165041418790000002907184703528383383_"> <use xlink:href="#SVGID_00000134957454905375254590000015848386818866714789_" overflow="visible"></use> </clipPath> <path clip-path="url(#SVGID_00000100380267165041418790000002907184703528383383_)" fill="#0033A1" d="M308.7284,69.5759 l11.0056-24.2811c1.3885,0,3.061,0.1868,4.7335,0.1868c1.6205,0,3.293-0.1868,4.9208-0.1868v1.3963H328.97 c-1.3963,0-4.2259,0.0896-4.3156,2.1355c-0.0524,1.2095,0.1344,2.5983,0.2315,3.6211l1.7622,21.2572 c0.1864,2.3221,1.3439,2.5087,4.1288,2.5983v1.3963c-2.1801-0.0898-4.4574-0.1868-6.6826-0.1868 c-2.5534,0-5.1068,0.0971-7.6606,0.1868v-1.3963c2.4117-0.1344,3.9948-0.1344,3.9948-2.1802c0-0.5526,0-1.0677-0.0524-2.2699 l-1.2915-19.592h-0.097L307.153,78.3938h-1.1201l-11.2293-25.625h-0.097l-1.5754,20.3835c0,1.4859,0.3732,2.225,0.978,2.6432 c0.6945,0.4181,1.6652,0.4628,2.9717,0.5077h0.5523v1.3963c-2.0904-0.0898-4.2259-0.1868-6.3162-0.1868 c-1.8069,0-3.6663,0.0971-5.4732,0.1868v-1.3963h0.6494c3.6663-0.1344,3.808-1.7174,4.2263-5.0548l1.3886-12.9096 c0.3732-3.2928,0.5601-6.3092,0.5601-8.1683c0-2.5983-1.9938-3.4794-4.0395-3.4794h-0.6047v-1.3963 c1.904,0,3.7633,0.1868,5.6673,0.1868c1.3886,0,2.7849-0.1868,4.1735-0.1868L308.7284,69.5759z"></path> </g> <g> <defs> <rect id="SVGID_00000042005015461351195960000008554713212880829073_" x="3.8782" y="0.5288" width="548.7705" height="222.2321"></rect> </defs> <clipPath id="SVGID_00000017505651594143060960000008525788367986692281_"> <use xlink:href="#SVGID_00000042005015461351195960000008554713212880829073_" overflow="visible"></use> </clipPath> <path clip-path="url(#SVGID_00000017505651594143060960000008525788367986692281_)" fill="#0033A1" d="M332.3988,76.3068h0.6494 c1.6725,0,3.4347-0.2315,3.4347-2.6432V49.3379c0-2.4117-1.7623-2.6432-3.4347-2.6432h-0.6494v-1.3961 c2.83,0,7.6606,0.1866,11.5579,0.1866c3.8978,0,8.7284-0.1866,11.8869-0.1866c-0.0971,1.9935-0.0524,5.0621,0.0893,7.1005 l-1.3886,0.3732c-0.2315-3.0164-0.7916-5.4356-5.6673-5.4356h-6.4507v12.1629h5.5251c2.7849,0,3.3896-1.5754,3.6658-4.0841h1.3963 c-0.0971,1.8144-0.1418,3.6214-0.1418,5.4356c0,1.762,0.0447,3.5243,0.1418,5.2863l-1.3963,0.2837 c-0.2762-2.7849-0.4179-4.5993-3.6211-4.5993h-5.5698v10.819c0,3.0164,2.6951,3.0164,5.6668,3.0164 c5.5625,0,8.0266-0.3732,9.4229-5.6671l1.2993,0.3286c-0.6052,2.4641-1.1648,4.9204-1.5832,7.3844 c-2.9717,0-8.31-0.1868-12.4839-0.1868c-4.1812,0-9.7063,0.1868-12.3495,0.1868L332.3988,76.3068L332.3988,76.3068z"></path> </g> <g> <defs> <rect id="SVGID_00000034063869832537327820000014417195155925741458_" x="3.8782" y="0.5288" width="548.7705" height="222.2321"></rect> </defs> <clipPath id="SVGID_00000098183745440301034820000005566275689174777511_"> <use xlink:href="#SVGID_00000034063869832537327820000014417195155925741458_" overflow="visible"></use> </clipPath> <path clip-path="url(#SVGID_00000098183745440301034820000005566275689174777511_)" fill="#0033A1" d="M371.0199,60.9847h2.2695 c4.6442,0,7.1529-1.762,7.1529-7.2425c0-4.1288-2.6432-6.772-6.7792-6.772c-1.389,0-1.9938,0.1344-2.6432,0.1866V60.9847z M365.0765,50.2181c0-3.3899-1.8593-3.5241-3.3003-3.5241h-0.8285v-1.3963c1.4856,0,4.3603,0.1866,7.1898,0.1866 c2.7853,0,5.0175-0.1866,7.4742-0.1866c5.8537,0,11.0502,1.5754,11.0502,8.1683c0,4.1812-2.7849,6.7348-6.4511,8.1758 l7.9372,11.8792c1.2988,1.9486,2.2248,2.5087,4.502,2.7849v1.3963c-1.5308,0-3.0164-0.1866-4.5471-0.1866 c-1.441,0-2.9266,0.1866-4.3676,0.1866c-3.5692-4.6889-6.638-9.7063-9.6544-15.045h-3.0611v9.938 c0,3.5689,1.6725,3.7107,3.808,3.7107h0.8285v1.3963c-2.6432,0-5.3383-0.1866-7.9814-0.1866 c-2.2253,0-4.4127,0.1866-6.7273,0.1866v-1.3963h0.8285c1.7249,0,3.3003-0.7914,3.3003-2.5087L365.0765,50.2181L365.0765,50.2181z "></path> </g> <g> <defs> <rect id="SVGID_00000013177196099846326600000015055793088637374120_" x="3.8782" y="0.5288" width="548.7705" height="222.2321"></rect> </defs> <clipPath id="SVGID_00000013911398598970225940000001510571445006320516_"> <use xlink:href="#SVGID_00000013177196099846326600000015055793088637374120_" overflow="visible"></use> </clipPath> <path clip-path="url(#SVGID_00000013911398598970225940000001510571445006320516_)" fill="#0033A1" d="M394.0382,76.3068h0.6494 c1.6725,0,3.4348-0.2315,3.4348-2.6432V49.3379c0-2.4117-1.7623-2.6432-3.4348-2.6432h-0.6494v-1.3961 c1.8069,0,4.5918,0.1866,6.869,0.1866c2.3223,0,5.1072-0.1866,7.2874-0.1866v1.3961h-0.6494 c-1.6725,0-3.4347,0.2315-3.4347,2.6432v24.3257c0,2.4117,1.7622,2.6432,3.4347,2.6432h0.6494v1.3963 c-2.2248,0-5.0102-0.1868-7.332-0.1868c-2.2772,0-5.0175,0.1868-6.8244,0.1868V76.3068z"></path> </g> <g> <defs> <rect id="SVGID_00000136375900937140418570000002535247590788968577_" x="3.8782" y="0.5288" width="548.7705" height="222.2321"></rect> </defs> <clipPath id="SVGID_00000056399357663743244200000013944794258432018568_"> <use xlink:href="#SVGID_00000136375900937140418570000002535247590788968577_" overflow="visible"></use> </clipPath> <path clip-path="url(#SVGID_00000056399357663743244200000013944794258432018568_)" fill="#0033A1" d="M439.2504,54.8608 c-1.2993-4.5023-3.4348-8.2132-10.4008-8.2132c-7.6159,0-11.603,5.9881-11.603,14.1117c0,7.7502,3.9497,15.5974,12.7154,15.5974 c4.9728,0,8.2654-3.1135,9.4753-7.7577l1.2988,0.1866c-0.6047,2.5087-0.9256,5.0174-1.1644,7.5189 c-2.6883,1.1648-6.3541,2.0906-10.625,2.0906c-10.4455,0-18.1959-5.7044-18.1959-17.3596 c0-10.4008,8.3998-16.4336,17.9644-16.4336c5.428,0,7.1903,1.6725,11.5583,2.3221c-0.0451,2.5534,0.0447,5.1519,0.3655,7.7502 L439.2504,54.8608z"></path> </g> <g> <defs> <rect id="SVGID_00000136394528690066171430000011795785023005791379_" x="3.8782" y="0.5288" width="548.7705" height="222.2321"></rect> </defs> <clipPath id="SVGID_00000058569404500130445390000015789471570653898396_"> <use xlink:href="#SVGID_00000136394528690066171430000011795785023005791379_" overflow="visible"></use> </clipPath> <path clip-path="url(#SVGID_00000058569404500130445390000015789471570653898396_)" fill="#0033A1" d="M457.3533,50.4989h-0.0971 l-4.3156,13.1335h8.6832L457.3533,50.4989z M450.5735,71.0615c-0.463,1.5754-1.0231,2.7849-1.0231,3.6211 c0,1.3963,1.9491,1.6203,3.4794,1.6203h0.5154v1.3963c-1.8593-0.0895-3.7633-0.1866-5.6149-0.1866 c-1.6725,0-3.3449,0.0971-5.0174,0.1866v-1.3963h0.2762c1.8147,0,3.345-1.0602,4.0395-3.0164l7.4291-21.3018 c0.6047-1.7174,1.441-4.0395,1.7172-5.7566c1.4861-0.5152,3.3449-1.4412,4.2263-2.0011c0.1417-0.0449,0.2315-0.0896,0.3732-0.0896 c0.1344,0,0.2315,0,0.3208,0.1417c0.1422,0.3659,0.2766,0.7841,0.4183,1.1573l8.5415,24.2811 c0.5601,1.6201,1.1124,3.3374,1.7176,4.7338c0.5596,1.299,1.5303,1.8516,3.0611,1.8516h0.2839v1.3963 c-2.0908-0.0895-4.1812-0.1866-6.4065-0.1866c-2.2772,0-4.5991,0.0971-6.9661,0.1866v-1.3963h0.515 c1.0677,0,2.8747-0.1791,2.8747-1.3439c0-0.5975-0.4179-1.8591-0.9256-3.3374l-1.8147-5.3909h-10.5352L450.5735,71.0615z"></path> </g> <g> <defs> <rect id="SVGID_00000183957722759684703180000015849298731653583262_" x="3.8782" y="0.5288" width="548.7705" height="222.2321"></rect> </defs> <clipPath id="SVGID_00000002362584977349522070000002163732412797362592_"> <use xlink:href="#SVGID_00000183957722759684703180000015849298731653583262_" overflow="visible"></use> </clipPath> <path clip-path="url(#SVGID_00000002362584977349522070000002163732412797362592_)" fill="#0033A1" d="M506.645,68.5551 l0.0971-0.0895V51.0537c0-3.808-2.6505-4.3605-4.0468-4.3605H501.68v-1.3961c2.1801,0,4.3156,0.1866,6.4958,0.1866 c1.904,0,3.808-0.1866,5.7115-0.1866v1.3961h-0.6941c-1.9564,0-4.1365,0.3659-4.1365,5.8911V73.707 c0,1.6276,0.0447,3.2479,0.2839,4.6889h-1.7696L483.6705,51.748v19.1292c0,4.0393,0.7843,5.428,4.3607,5.428h0.7911v1.3963 c-2.0011,0-3.9944-0.1866-5.9954-0.1866c-2.0831,0-4.2186,0.1866-6.3089,0.1866v-1.3963h0.6494 c3.2032,0,4.1812-2.1801,4.1812-5.8911v-19.547c0-2.5985-2.1355-4.1739-4.2259-4.1739h-0.6047v-1.3961 c1.7618,0,3.576,0.1866,5.3383,0.1866c1.3963,0,2.7402-0.1866,4.1365-0.1866L506.645,68.5551z"></path> </g> <g> <defs> <rect id="SVGID_00000105391513513118388640000006231240993541208715_" x="3.8782" y="0.5288" width="548.7705" height="222.2321"></rect> </defs> <clipPath id="SVGID_00000013873247662744611140000014567640691611101874_"> <use xlink:href="#SVGID_00000105391513513118388640000006231240993541208715_" overflow="visible"></use> </clipPath> <path clip-path="url(#SVGID_00000013873247662744611140000014567640691611101874_)" fill="#0033A1" d="M256.5547,108.4312 c0-3.345-1.7171-3.3899-3.5765-3.3899h-0.5523v-1.3888c1.9933,0,4.4574,0.1793,7.3767,0.1793 c2.7849,0,5.1072-0.1793,6.9661-0.1793v1.3888h-0.5596c-1.852,0-3.7109,0.0449-3.7109,3.3899v16.0155 c0,5.8986,2.1801,9.9827,8.8177,9.9827c6.1299,0,8.8181-3.9048,8.8181-10.1693v-15.8289c0-3.345-1.7623-3.3899-3.3377-3.3899 h-0.9333v-1.3888c1.8593,0,3.7633,0.1793,5.6222,0.1793c1.8069,0,3.5765-0.1793,5.3834-0.1793v1.3888h-0.978 c-1.2469,0-2.9717,0.0449-2.9717,3.3899v14.806c0,10.4904-5.5702,13.5068-12.4839,13.5068 c-8.9152,0-13.8802-3.2479-13.8802-11.5581L256.5547,108.4312L256.5547,108.4312z"></path> </g> <g> <defs> <rect id="SVGID_00000179613321353488790010000007716470158031313042_" x="3.8782" y="0.5288" width="548.7705" height="222.2321"></rect> </defs> <clipPath id="SVGID_00000021112016413213762870000003967791574419648921_"> <use xlink:href="#SVGID_00000179613321353488790010000007716470158031313042_" overflow="visible"></use> </clipPath> <path clip-path="url(#SVGID_00000021112016413213762870000003967791574419648921_)" fill="#0033A1" d="M318.478,126.9071 l0.097-0.0971v-17.4043c0-3.808-2.6505-4.3605-4.0468-4.3605h-1.0154v-1.3961c2.1801,0,4.3156,0.1866,6.4958,0.1866 c1.904,0,3.808-0.1866,5.7115-0.1866v1.3961h-0.6941c-1.9564,0-4.1365,0.3659-4.1365,5.8911v21.1227 c0,1.6276,0.0446,3.2479,0.2839,4.6889h-1.7696l-23.9078-26.6478v19.1292c0,4.0393,0.7916,5.4281,4.3681,5.4281h0.7838v1.3963 c-1.9937,0-3.9871-0.1866-5.9881-0.1866c-2.0831,0-4.2186,0.1866-6.309,0.1866v-1.3963h0.6494 c3.2032,0,4.1812-2.1802,4.1812-5.8911v-19.5471c0-2.5985-2.1428-4.1739-4.2259-4.1739h-0.6047v-1.3961 c1.7618,0,3.576,0.1866,5.3383,0.1866c1.3963,0,2.7402-0.1866,4.1288-0.1866L318.478,126.9071z"></path> </g> <g> <defs> <rect id="SVGID_00000053516229173845146970000002180273405539845301_" x="3.8782" y="0.5288" width="548.7705" height="222.2321"></rect> </defs> <clipPath id="SVGID_00000088127826134047157600000010541960727675670161_"> <use xlink:href="#SVGID_00000053516229173845146970000002180273405539845301_" overflow="visible"></use> </clipPath> <path clip-path="url(#SVGID_00000088127826134047157600000010541960727675670161_)" fill="#0033A1" d="M327.0145,134.6586h0.6494 c1.6725,0,3.4347-0.2315,3.4347-2.6432v-24.3257c0-2.4117-1.7622-2.6432-3.4347-2.6432h-0.6494v-1.3961 c1.8142,0,4.5918,0.1866,6.869,0.1866c2.3223,0,5.1072-0.1866,7.2874-0.1866v1.3961h-0.6494 c-1.6725,0-3.4348,0.2315-3.4348,2.6432v24.3257c0,2.4117,1.7623,2.6432,3.4348,2.6432h0.6494v1.3963 c-2.2248,0-5.0101-0.1868-7.332-0.1868c-2.2772,0-5.0101,0.1868-6.8244,0.1868V134.6586z"></path> </g> <g> <defs> <rect id="SVGID_00000013182135022967313360000013345972514628277949_" x="3.8782" y="0.5288" width="548.7705" height="222.2321"></rect> </defs> <clipPath id="SVGID_00000181770696490344366800000011977735232483376804_"> <use xlink:href="#SVGID_00000013182135022967313360000013345972514628277949_" overflow="visible"></use> </clipPath> <path clip-path="url(#SVGID_00000181770696490344366800000011977735232483376804_)" fill="#0033A1" d="M356.1649,105.0423h-1.0677 c-1.7171,0-2.4117,0.6943-2.4117,1.2993c0,0.2313,0.1791,0.8809,0.4183,1.4856l7.9368,20.6599h0.0893l7.3845-19.3158 c0.5528-1.4337,0.6047-2.2699,0.6047-2.5985c0-1.3439-1.3963-1.5305-2.9717-1.5305h-0.7911v-1.3963 c1.6274,0,3.3896,0.1868,5.3834,0.1868c1.441,0,2.9266-0.1868,4.2705-0.1868v1.3963h-0.463c-0.8362,0-1.7171,0.142-2.4563,1.6276 c-0.3732,0.6496-7.1529,17.7778-10.1693,25.4833c-0.6047,1.5305-1.3439,3.0611-1.904,4.5918h-1.7171l-11.7899-29.0595 c-0.8809-2.1802-1.8589-2.6432-3.8973-2.6432h-0.4703v-1.3963c2.367,0,4.7859,0.1868,7.153,0.1868 c2.2772,0,5.5251-0.1868,6.869-0.1868L356.1649,105.0423L356.1649,105.0423z"></path> </g> <g> <defs> <rect id="SVGID_00000158025836894972912840000011741046767382109073_" x="3.8782" y="0.5288" width="548.7705" height="222.2321"></rect> </defs> <clipPath id="SVGID_00000000931995493459403490000004370376331332025751_"> <use xlink:href="#SVGID_00000158025836894972912840000011741046767382109073_" overflow="visible"></use> </clipPath> <path clip-path="url(#SVGID_00000000931995493459403490000004370376331332025751_)" fill="#0033A1" d="M376.2147,134.6586h0.6494 c1.6725,0,3.4348-0.2315,3.4348-2.6432v-24.3257c0-2.4117-1.7623-2.6432-3.4348-2.6432h-0.6494v-1.3961 c2.83,0,7.6606,0.1866,11.5579,0.1866c3.8977,0,8.7283-0.1866,11.8869-0.1866c-0.0971,1.9935-0.0524,5.0621,0.0893,7.1005 l-1.3885,0.3732c-0.2315-3.0164-0.7916-5.4356-5.6673-5.4356h-6.4507v12.1629h5.5251c2.7849,0,3.3896-1.5754,3.6658-4.0841h1.3963 c-0.0971,1.8144-0.1417,3.6214-0.1417,5.4356c0,1.762,0.0446,3.5243,0.1417,5.2863l-1.3963,0.2837 c-0.2762-2.7849-0.4179-4.5993-3.6211-4.5993h-5.5698v10.8189c0,3.0164,2.6951,3.0164,5.6668,3.0164 c5.5625,0,8.0266-0.3732,9.4229-5.6671l1.2993,0.3286c-0.6052,2.4641-1.1648,4.9204-1.5832,7.3844 c-2.9717,0-8.31-0.1868-12.4839-0.1868c-4.1812,0-9.7063,0.1868-12.3495,0.1868L376.2147,134.6586L376.2147,134.6586z"></path> </g> <g> <defs> <rect id="SVGID_00000067938087515543818040000014690147155656772256_" x="3.8782" y="0.5288" width="548.7705" height="222.2321"></rect> </defs> <clipPath id="SVGID_00000028296915682361396430000008599671396181063353_"> <use xlink:href="#SVGID_00000067938087515543818040000014690147155656772256_" overflow="visible"></use> </clipPath> <path clip-path="url(#SVGID_00000028296915682361396430000008599671396181063353_)" fill="#0033A1" d="M414.8353,119.3368h2.2695 c4.6442,0,7.153-1.762,7.153-7.2425c0-4.1288-2.6432-6.772-6.7793-6.772c-1.389,0-1.9937,0.1344-2.6432,0.1866L414.8353,119.3368 L414.8353,119.3368z M408.8918,108.5702c0-3.3899-1.8593-3.5241-3.2926-3.5241h-0.8362v-1.3963 c1.4856,0,4.3603,0.1866,7.1898,0.1866c2.7853,0,5.0174-0.1866,7.4742-0.1866c5.8537,0,11.0502,1.5754,11.0502,8.1683 c0,4.1812-2.7849,6.7348-6.4511,8.1683l7.9372,11.8867c1.2988,1.9487,2.2248,2.5087,4.502,2.7849v1.3963 c-1.5307,0-3.0164-0.1866-4.5471-0.1866c-1.441,0-2.9266,0.1866-4.3676,0.1866c-3.5692-4.6889-6.638-9.7063-9.6544-15.0451 h-3.0611v9.9381c0,3.5689,1.6725,3.7107,3.808,3.7107h0.8285v1.3963c-2.6432,0-5.3383-0.1866-7.9814-0.1866 c-2.2253,0-4.4127,0.1866-6.7273,0.1866v-1.3963h0.8362c1.7172,0,3.2926-0.7914,3.2926-2.5087L408.8918,108.5702 L408.8918,108.5702z"></path> </g> <g> <defs> <rect id="SVGID_00000075875987127452034530000012458302363502874011_" x="3.8782" y="0.5288" width="548.7705" height="222.2321"></rect> </defs> <clipPath id="SVGID_00000075848835052108270640000000242217945152022455_"> <use xlink:href="#SVGID_00000075875987127452034530000012458302363502874011_" overflow="visible"></use> </clipPath> <path clip-path="url(#SVGID_00000075848835052108270640000000242217945152022455_)" fill="#0033A1" d="M455.7728,110.5198 c-0.3213-3.0164-2.2772-5.8986-5.4804-5.8986c-3.6658,0-5.7042,2.1877-5.7042,5.8537c0,7.7055,13.9249,5.3834,13.9249,16.5234 c0,6.4062-5.2936,9.7512-11.2371,9.7512c-2.5985,0-5.1072-0.9333-7.3767-2.0906c-0.2315-2.367-0.5601-4.6889-0.7916-7.0559 l1.2992-0.2762c0.5601,3.9422,2.7849,7.3769,7.1976,7.3769c3.1508,0,5.712-1.9938,5.712-5.2863 c0-8.2207-13.6487-5.6671-13.6487-16.8593c0-6.033,4.2632-9.602,10.2587-9.602c1.2992,0,5.2416,0.5077,6.6826,0.6943 c0,2.1804,0.1869,4.4054,0.463,6.6377L455.7728,110.5198z"></path> </g> <g> <defs> <rect id="SVGID_00000109027747241219053620000002956461663344165815_" x="3.8782" y="0.5288" width="548.7705" height="222.2321"></rect> </defs> <clipPath id="SVGID_00000023276549570826502140000016432831274437342629_"> <use xlink:href="#SVGID_00000109027747241219053620000002956461663344165815_" overflow="visible"></use> </clipPath> <path clip-path="url(#SVGID_00000023276549570826502140000016432831274437342629_)" fill="#0033A1" d="M461.0623,134.6586h0.6494 c1.6725,0,3.4348-0.2315,3.4348-2.6432v-24.3257c0-2.4117-1.7623-2.6432-3.4348-2.6432h-0.6494v-1.3961 c1.8069,0,4.5995,0.1866,6.869,0.1866c2.3223,0,5.1072-0.1866,7.2874-0.1866v1.3961h-0.6494 c-1.6725,0-3.4347,0.2315-3.4347,2.6432v24.3257c0,2.4117,1.7622,2.6432,3.4347,2.6432h0.6494v1.3963 c-2.2248,0-5.0102-0.1868-7.332-0.1868c-2.2772,0-5.0175,0.1868-6.8244,0.1868V134.6586z"></path> </g> <g> <defs> <rect id="SVGID_00000112607440321841747930000011227811861295889280_" x="3.8782" y="0.5288" width="548.7705" height="222.2321"></rect> </defs> <clipPath id="SVGID_00000133514969295855837020000011211556178423423879_"> <use xlink:href="#SVGID_00000112607440321841747930000011227811861295889280_" overflow="visible"></use> </clipPath> <path clip-path="url(#SVGID_00000133514969295855837020000011211556178423423879_)" fill="#0033A1" d="M482.1826,105.9703 c-3.4794,0-3.6211,0.8362-4.3156,4.2261h-1.3963c0.1868-1.2993,0.4183-2.5985,0.5601-3.9424 c0.1869-1.3065,0.2762-2.6058,0.2762-3.9497h1.1124c0.3737,1.3888,1.5385,1.3439,2.7853,1.3439h23.9525 c1.2542,0,2.4189-0.0447,2.5087-1.441l1.1124,0.1866c-0.1791,1.2544-0.3659,2.5087-0.5077,3.7631 c-0.0898,1.2544-0.0898,2.5087-0.0898,3.7631l-1.3963,0.5077c-0.0893-1.7171-0.3208-4.4574-3.4343-4.4574h-7.6159v24.6992 c0,3.569,1.6278,3.9871,3.8526,3.9871h0.8886v1.3961c-1.8147,0-5.0626-0.1866-7.5713-0.1866 c-2.7849,0-6.0328,0.1866-7.8397,0.1866v-1.3961h0.8813c2.5457,0,3.8526-0.2315,3.8526-3.8975v-24.7887L482.1826,105.9703 L482.1826,105.9703z"></path> </g> <g> <defs> <rect id="SVGID_00000044136916291207928640000012955581412862424732_" x="3.8782" y="0.5288" width="548.7705" height="222.2321"></rect> </defs> <clipPath id="SVGID_00000127027728254556215820000002107903988227464591_"> <use xlink:href="#SVGID_00000044136916291207928640000012955581412862424732_" overflow="visible"></use> </clipPath> <path clip-path="url(#SVGID_00000127027728254556215820000002107903988227464591_)" fill="#0033A1" d="M524.1436,120.9183 l-9.2884-12.7229c-1.3886-1.9486-2.2695-3.1508-4.4501-3.1508h-0.4703v-1.3961c2.5087,0,4.7859,0.1866,7.2947,0.1866 c2.4116,0,4.6369-0.1866,6.8694-0.1866v1.3961h-0.6047c-1.2546,0-2.4116,0.3211-2.4116,1.0677 c0,0.5077,0.5523,1.1124,0.8362,1.5305l7.0035,9.841l5.7566-8.3102c0.8362-1.3439,1.441-2.1355,1.441-3.0164 c0-0.9782-1.9938-1.1126-2.6432-1.1126h-0.8362v-1.3961c1.7623,0,3.5241,0.1866,5.2864,0.1866 c1.4933,0,2.9717-0.1866,4.4127-0.1866v1.3961c-1.5754,0-2.8746,1.1126-3.6211,2.1355l-8.6313,12.2077v11.0951 c0,3.9422,1.3885,4.1737,3.8526,4.1737h0.8809v1.3963c-2.7402,0-5.5251-0.1866-7.5708-0.1866c-2.3146,0-5.1,0.1866-7.8397,0.1866 v-1.3963h0.8809c2.7402,0,3.8526-0.7392,3.8526-3.808L524.1436,120.9183L524.1436,120.9183z"></path> </g> <g> <defs> <rect id="SVGID_00000111178013627949539400000018330093885999995065_" x="3.8782" y="0.5288" width="548.7705" height="222.2321"></rect> </defs> <clipPath id="SVGID_00000026886105965648073720000007452209614754972564_"> <use xlink:href="#SVGID_00000111178013627949539400000018330093885999995065_" overflow="visible"></use> </clipPath> <path clip-path="url(#SVGID_00000026886105965648073720000007452209614754972564_)" fill="#0033A1" d="M271.3154,193.06 c9.0045,0,10.5872-7.9443,10.5872-14.7162c0-6.7797-3.6658-15.0002-11.3788-15.0002c-8.1158,0-10.5352,7.2425-10.5352,13.4694 C259.9886,185.1157,263.7965,193.06,271.3154,193.06 M270.6209,161.3051c9.8854,0,17.7775,6.1301,17.7775,16.0155 c0,10.6772-7.6606,17.7778-17.546,17.7778c-9.8408,0-17.3596-6.6824-17.3596-16.6651 C253.4928,168.7791,260.9665,161.3051,270.6209,161.3051"></path> </g> <g> <defs> <rect id="SVGID_00000170965318471963767230000004386979958264385467_" x="3.8782" y="0.5288" width="548.7705" height="222.2321"></rect> </defs> <clipPath id="SVGID_00000003799605903638087190000015429117257548826756_"> <use xlink:href="#SVGID_00000170965318471963767230000004386979958264385467_" overflow="visible"></use> </clipPath> <path clip-path="url(#SVGID_00000003799605903638087190000015429117257548826756_)" fill="#0033A1" d="M301.2091,176.2059h6.4958 c2.2772,0,2.9717-1.441,2.9717-3.7631h1.3963c-0.0971,1.6725-0.1868,3.3001-0.1868,4.9726c0,1.904,0.0446,3.7558,0.1868,5.6598 h-1.3963c0-2.5985-0.7392-4.5471-3.7109-4.5471h-5.7566v11.8343c0,2.5983,2.1355,2.6507,4.4574,2.6507h0.6047v1.3888 c-2.1874,0-5.3383-0.1793-7.9892-0.1793c-2.4117,0-5.2412,0.1793-7.1006,0.1793v-1.3888h0.6499 c1.6725,0,3.4343-0.2315,3.4343-2.6507v-24.3257c0-2.4117-1.7618-2.6432-3.4343-2.6432h-0.6499v-1.3888 c2.83,0,7.6606,0.1793,11.5584,0.1793c3.8973,0,8.7283-0.1793,11.8864-0.1793c-0.097,1.9935-0.0446,5.0548,0.0898,7.1008 l-1.389,0.3732c-0.2835-3.203-1.0226-5.4356-4.6889-5.4356h-7.4291L301.2091,176.2059L301.2091,176.2059z"></path> </g> <g> <defs> <rect id="SVGID_00000129179620976149930950000013200513640387382435_" x="3.8782" y="0.5288" width="548.7705" height="222.2321"></rect> </defs> <clipPath id="SVGID_00000158749581992839191380000014746652565169805964_"> <use xlink:href="#SVGID_00000129179620976149930950000013200513640387382435_" overflow="visible"></use> </clipPath> <path clip-path="url(#SVGID_00000158749581992839191380000014746652565169805964_)" fill="#0033A1" d="M339.9204,188.7846 c0,3.2479,0.6047,3.9499,4.1812,3.9499c3.9424,0,6.869-3.2032,6.869-7.3396c0-5.1519-3.4347-7.5189-8.0785-7.5189h-2.9717 V188.7846z M339.9204,176.2036h2.2772c3.9424,0,6.869-1.6649,6.869-6.0328c0-5.3385-3.2032-6.4958-6.3613-6.4958h-2.7849 L339.9204,176.2036L339.9204,176.2036z M329.8928,193.0107h0.6494c1.6725,0,3.4348-0.2315,3.4348-2.6432v-24.3257 c0-2.4117-1.7623-2.6432-3.4348-2.6432h-0.6494v-1.3963c2.0384,0,4.6442,0.1868,7.2422,0.1868 c2.6432,0,5.2941-0.1868,7.4296-0.1868c7.7946,0,10.7216,3.2481,10.7216,7.2874c0,4.7338-4.3603,6.7795-8.4522,7.5187v0.0971 c5.0626-0.1417,10.3562,2.688,10.3562,8.3102c0,5.0102-4.9204,9.1914-10.9609,9.1914c-2.3146,0-5.2412-0.1868-8.1236-0.1868 c-2.8742,0-6.2191,0.1868-8.2129,0.1868L329.8928,193.0107L329.8928,193.0107z"></path> </g> <g> <defs> <rect id="SVGID_00000170276517799101421010000015140690069133748926_" x="3.8782" y="0.5288" width="548.7705" height="222.2321"></rect> </defs> <clipPath id="SVGID_00000046300779531037799160000007343008471882305698_"> <use xlink:href="#SVGID_00000170276517799101421010000015140690069133748926_" overflow="visible"></use> </clipPath> <path clip-path="url(#SVGID_00000046300779531037799160000007343008471882305698_)" fill="#0033A1" d="M374.9664,167.2028h-0.0971 l-4.3156,13.1335h8.6832L374.9664,167.2028z M368.1867,187.7654c-0.463,1.5754-1.0231,2.7849-1.0231,3.6211 c0,1.3963,1.9491,1.6203,3.4794,1.6203h0.5154v1.3963c-1.8593-0.0895-3.7633-0.1866-5.6149-0.1866 c-1.6725,0-3.345,0.0971-5.0175,0.1866v-1.3963h0.2762c1.8146,0,3.3449-1.0602,4.0395-3.0164l7.4291-21.3018 c0.6047-1.7174,1.441-4.0395,1.7171-5.7566c1.4861-0.5152,3.345-1.4412,4.2263-2.0011c0.1417-0.0449,0.2315-0.0895,0.3732-0.0895 c0.1345,0,0.2315,0,0.3208,0.1417c0.1422,0.3659,0.2766,0.7841,0.4184,1.1573l8.5415,24.2811 c0.5601,1.6201,1.1124,3.3374,1.7176,4.7338c0.5596,1.299,1.5303,1.8516,3.061,1.8516h0.2839v1.3963 c-2.0909-0.0895-4.1812-0.1866-6.4065-0.1866c-2.2772,0-4.5991,0.0971-6.9661,0.1866v-1.3963h0.515 c1.0677,0,2.8747-0.1791,2.8747-1.3439c0-0.5974-0.4179-1.8591-0.9256-3.3374l-1.8147-5.3909h-10.5353L368.1867,187.7654z"></path> </g> <g> <defs> <rect id="SVGID_00000011022068725058638750000003165016263638722966_" x="3.8782" y="0.5288" width="548.7705" height="222.2321"></rect> </defs> <clipPath id="SVGID_00000175303629205720262640000005125809440642706826_"> <use xlink:href="#SVGID_00000011022068725058638750000003165016263638722966_" overflow="visible"></use> </clipPath> <path clip-path="url(#SVGID_00000175303629205720262640000005125809440642706826_)" fill="#0033A1" d="M404.3912,190.3646 c0,2.5087,1.9487,2.6432,3.6211,2.6432h0.8814v1.3961c-2.0462,0-5.0102-0.1866-7.5189-0.1866 c-2.367,0-5.1519,0.1866-7.0112,0.1866v-1.3961h0.6498c1.6725,0,3.4343-0.2315,3.4343-2.6432v-24.3257 c0-2.4117-1.7618-2.6432-3.4343-2.6432h-0.6498v-1.3963c1.8593,0,4.6442,0.1868,7.0112,0.1868 c2.5087,0,5.4727-0.1868,7.5189-0.1868v1.3963h-0.8814c-1.6725,0-3.6211,0.1344-3.6211,2.6432v10.1693h16.852v-10.1693 c0-2.5087-1.9491-2.6432-3.6216-2.6432h-0.8809v-1.3963c2.0384,0,5.0102,0.1868,7.5189,0.1868 c2.367,0,5.1519-0.1868,7.0107-0.1868v1.3963h-0.6494c-1.6725,0-3.442,0.2315-3.442,2.6432v24.3257 c0,2.4117,1.7696,2.6432,3.442,2.6432h0.6494v1.3961c-1.8589,0-4.6438-0.1866-7.0107-0.1866 c-2.5087,0-5.4805,0.1866-7.5189,0.1866v-1.3961h0.8809c1.6725,0,3.6216-0.1344,3.6216-2.6432v-11.5581h-16.852V190.3646z"></path> </g> <g> <defs> <rect id="SVGID_00000089536315969042572230000015439104185379059849_" x="3.8782" y="0.5288" width="548.7705" height="222.2321"></rect> </defs> <clipPath id="SVGID_00000008867197784421710870000016598865039954835840_"> <use xlink:href="#SVGID_00000089536315969042572230000015439104185379059849_" overflow="visible"></use> </clipPath> <path clip-path="url(#SVGID_00000008867197784421710870000016598865039954835840_)" fill="#0033A1" d="M443.2885,177.6886h2.2772 c4.6365,0,7.1452-1.762,7.1452-7.2425c0-4.1288-2.6432-6.772-6.7793-6.772c-1.389,0-1.9937,0.1344-2.6432,0.1866 L443.2885,177.6886L443.2885,177.6886z M437.345,166.9221c0-3.3898-1.8593-3.5241-3.2925-3.5241h-0.8362v-1.3963 c1.4856,0,4.3603,0.1866,7.1898,0.1866c2.7853,0,5.0174-0.1866,7.4742-0.1866c5.8537,0,11.0502,1.5754,11.0502,8.1683 c0,4.1812-2.7849,6.7348-6.4511,8.1758l7.9372,11.8792c1.2988,1.9486,2.2248,2.5087,4.502,2.7849v1.3963 c-1.5307,0-3.0164-0.1866-4.5471-0.1866c-1.441,0-2.9266,0.1866-4.3676,0.1866c-3.5692-4.6889-6.638-9.7063-9.6544-15.045h-3.0611 v9.938c0,3.569,1.6725,3.7107,3.808,3.7107h0.8362v1.3963c-2.6509,0-5.346-0.1866-7.9892-0.1866 c-2.2253,0-4.4054,0.1866-6.7273,0.1866v-1.3963h0.8362c1.7171,0,3.2925-0.7914,3.2925-2.5087v-23.5791H437.345z"></path> </g> <g> <defs> <rect id="SVGID_00000111905748915148821570000001441457295973302416_" x="3.8782" y="0.5288" width="548.7705" height="222.2321"></rect> </defs> <clipPath id="SVGID_00000165233404014853550360000015586055529334996659_"> <use xlink:href="#SVGID_00000111905748915148821570000001441457295973302416_" overflow="visible"></use> </clipPath> <path clip-path="url(#SVGID_00000165233404014853550360000015586055529334996659_)" fill="#0033A1" d="M480.6545,167.2028h-0.0971 l-4.3156,13.1335h8.6832L480.6545,167.2028z M473.8748,187.7654c-0.463,1.5754-1.0231,2.7849-1.0231,3.6211 c0,1.3963,1.9491,1.6203,3.4794,1.6203h0.5154v1.3963c-1.8593-0.0895-3.7633-0.1866-5.6149-0.1866 c-1.6725,0-3.3449,0.0971-5.0174,0.1866v-1.3963h0.2762c1.8147,0,3.345-1.0602,4.0395-3.0164l7.4291-21.3018 c0.6047-1.7174,1.4409-4.0395,1.7171-5.7566c1.4861-0.5152,3.345-1.4412,4.2263-2.0011c0.1417-0.0449,0.2315-0.0895,0.3732-0.0895 c0.1344,0,0.2315,0,0.3208,0.1417c0.1422,0.3659,0.2766,0.7841,0.4183,1.1573l8.5415,24.2811 c0.5601,1.6201,1.1124,3.3374,1.7176,4.7338c0.5596,1.299,1.5303,1.8516,3.061,1.8516h0.2839v1.3963 c-2.0908-0.0895-4.1812-0.1866-6.4065-0.1866c-2.2772,0-4.5991,0.0971-6.9661,0.1866v-1.3963h0.515 c1.0677,0,2.8747-0.1791,2.8747-1.3439c0-0.5974-0.4179-1.8591-0.9255-3.3374l-1.8147-5.3909h-10.5353L473.8748,187.7654z"></path> </g> <g> <defs> <rect id="SVGID_00000083078642808590466850000015369680763779663252_" x="3.8782" y="0.5288" width="548.7705" height="222.2321"></rect> </defs> <clipPath id="SVGID_00000056392166321774652380000001008188784994377635_"> <use xlink:href="#SVGID_00000083078642808590466850000015369680763779663252_" overflow="visible"></use> </clipPath> <path clip-path="url(#SVGID_00000056392166321774652380000001008188784994377635_)" fill="#0033A1" d="M499.8202,193.0107h0.6494 c1.6725,0,3.4348-0.2315,3.4348-2.6432v-24.3257c0-2.4117-1.7623-2.6432-3.4348-2.6432h-0.6494v-1.3963 c1.8069,0,4.5918,0.1868,6.869,0.1868c2.3223,0,5.1072-0.1868,7.2874-0.1868v1.3963h-0.6494 c-1.6725,0-3.4348,0.2315-3.4348,2.6432v24.3257c0,2.4117,1.7623,2.6432,3.4348,2.6432h0.6494v1.3963 c-2.2248,0-5.0101-0.1868-7.332-0.1868c-2.2772,0-5.0174,0.1868-6.8243,0.1868L499.8202,193.0107L499.8202,193.0107z"></path> </g> <g> <defs> <rect id="SVGID_00000150800552372554964520000005515624187373831866_" x="3.8782" y="0.5288" width="548.7705" height="222.2321"></rect> </defs> <clipPath id="SVGID_00000101821158836837398400000004049654515287009467_"> <use xlink:href="#SVGID_00000150800552372554964520000005515624187373831866_" overflow="visible"></use> </clipPath> <path clip-path="url(#SVGID_00000101821158836837398400000004049654515287009467_)" fill="#0033A1" d="M545.4037,185.259 l0.097-0.0971v-17.4043c0-3.808-2.6505-4.3605-4.0468-4.3605h-1.0153v-1.3961c2.1801,0,4.3156,0.1866,6.4958,0.1866 c1.904,0,3.808-0.1866,5.7115-0.1866v1.3961h-0.694c-1.9564,0-4.1366,0.3659-4.1366,5.8911v21.1227 c0,1.6276,0.0447,3.2479,0.2839,4.6889h-1.7695l-23.9078-26.6478v19.1292c0,4.0392,0.7916,5.4281,4.368,5.4281h0.7838v1.3963 c-1.9938,0-3.9871-0.1866-5.9881-0.1866c-2.0831,0-4.2186,0.1866-6.309,0.1866v-1.3963h0.6494 c3.2032,0,4.1812-2.1802,4.1812-5.8911V167.571c0-2.5985-2.1428-4.1739-4.2259-4.1739h-0.6047v-1.3961 c1.7618,0,3.576,0.1866,5.3383,0.1866c1.3964,0,2.7402-0.1866,4.1288-0.1866L545.4037,185.259z"></path> </g> <g> <defs> <rect id="SVGID_00000155108514897745049690000012731988926421702542_" x="3.8782" y="0.5288" width="548.7705" height="222.2321"></rect> </defs> <clipPath id="SVGID_00000062878836284922589590000006942292442675208083_"> <use xlink:href="#SVGID_00000155108514897745049690000012731988926421702542_" overflow="visible"></use> </clipPath> <path clip-path="url(#SVGID_00000062878836284922589590000006942292442675208083_)" fill="#B1B1B1" d="M128.8404,125.4803 l9.8854-0.1344l-4.8233-8.6388l8.4968-5.0696l-8.4968-5.0623l4.8233-8.6386l-9.8854-0.142l-0.1422-9.8929l-8.6386,4.8306 l-5.0621-8.5041l-5.0699,8.5041l-8.6386-4.8306l-0.1344,9.8929l-9.8932,0.142l4.8233,8.6386l-8.4968,5.0623l8.4968,5.0696 l-4.8233,8.6388l9.8932,0.1344l0.1344,9.9005l8.6386-4.8308l5.0699,8.4968l5.0621-8.4968l8.6386,4.8233L128.8404,125.4803z M126.0405,130.7666l-6.9588-3.8902l-4.0841,6.8542l-4.0919-6.8542l-6.9588,3.8902l-0.1116-7.9744l-7.9669-0.1119l3.8823-6.9588 l-6.8467-4.0841l6.8467-4.0766l-3.8823-6.9663l7.9669-0.1119l0.1116-7.9744l6.9588,3.89l4.0919-6.8467l4.0841,6.8467l6.9588-3.89 l0.1116,7.9744l7.9668,0.1119l-3.8827,6.9663l6.8467,4.0766l-6.8467,4.0841l3.8827,6.9588l-7.9668,0.1119L126.0405,130.7666z M141.9587,27.9607l6.6603,6.9663l-8.161-2.2774l-7.8844,15.9036l-0.015-17.7178l-7.9518-1.5606l7.9965-3.4568l-0.0374-9.475 l5.8163,7.3769l8.8929-4.0096L141.9587,27.9607z M81.4431,34.927l6.6526-6.9663l-5.3159-8.2505l8.8997,4.0096l5.809-7.3769 l-0.0374,9.475l7.9965,3.4568l-7.9591,1.5606l-0.0073,17.7178l-7.8848-15.9036L81.4431,34.927z M148.619,188.1314l-6.6603,6.9588 l5.3164,8.2505l-8.8929-4.0021l-5.8163,7.3694l0.0374-9.4675l-7.9965-3.4568l7.9518-1.5606l0.015-17.7178l7.8844,15.8961 L148.619,188.1314z M105.4476,193.7836l-7.9965,3.4568l0.0374,9.4675l-5.809-7.3694l-8.8997,4.0021l5.3232-8.2505l-6.6599-6.9588 l8.1532,2.2699l7.8848-15.8961l0.0073,17.7178L105.4476,193.7836z M48.7924,54.3622l-8.2881-4.592l9.2734-1.4783l0.8513-9.7138 l4.5996,8.6611l9.3253-2.4117l-5.958,6.0105l10.0276,14.6417l-15.4707-8.6313l-5.2417,6.175L48.7924,54.3622z M19.5832,94.4348 l7.8402-5.809l-3.5988-8.6686l8.2503,4.6442l6.9214-5.2863l-2.5238,7.7055l15.4556,8.6536L34.2103,94.793l-2.0011,8.2355 l-2.83-9.2135L19.5832,94.4348z M203.0645,134.6491l3.5988,8.6687l-8.2503-4.6517l-6.9141,5.2938l2.516-7.7055l-15.4552-8.6536 l17.7251,0.8736l1.9938-8.2282l2.8295,9.2062l9.7961-0.6123L203.0645,134.6491z M181.2625,168.6962l8.2877,4.5918l-9.2734,1.4711 l-0.8513,9.7214l-4.5991-8.6687l-9.3258,2.4117l5.9658-6.0105l-10.0349-14.6344l15.4702,8.6313l5.2417-6.1823L181.2625,168.6962z M193.4999,86.5351l-2.5461-7.698l6.9365,5.264l8.228-4.6741l-3.5614,8.6759l7.8547,5.7865l-9.7961-0.5822l-2.7999,9.221 l-2.0234-8.228l-17.7178,0.9406L193.4999,86.5351z M161.2747,65.3229l9.9825-14.6716l-5.9881-5.9956l9.3331,2.3818l4.5768-8.6835 l0.8813,9.7138l9.2734,1.4485l-8.2653,4.6144l0.9105,8.6611l-5.2635-6.1599L161.2747,65.3229z M68.7801,157.7355l-9.9829,14.6716 l5.9881,5.9954l-9.3331-2.3818l-4.5768,8.6837l-0.8814-9.7214l-9.2729-1.4412l8.2653-4.6217l-0.911-8.6611l5.264,6.1674 L68.7801,157.7355z M36.1216,136.7397l2.5461,7.698l-6.9365-5.264l-8.2353,4.6741l3.5687-8.6835l-7.8547-5.779l9.7961,0.5822 l2.7999-9.221l2.0234,8.2207l17.7178-0.9333L36.1216,136.7397z"></path> </g> <g> <defs> <rect id="SVGID_00000045617117580292752720000012042037288580481982_" x="3.8782" y="0.5288" width="548.7705" height="222.2321"></rect> </defs> <clipPath id="SVGID_00000042017339487985765010000010542465537258413444_"> <use xlink:href="#SVGID_00000045617117580292752720000012042037288580481982_" overflow="visible"></use> </clipPath> <polygon clip-path="url(#SVGID_00000042017339487985765010000010542465537258413444_)" fill="#0033A1" points="89.8151,93.9082 96.2211,93.9232 96.1915,87.5541 80.8853,78.6093 "></polygon> </g> <g> <defs> <rect id="SVGID_00000054258467686130434270000010226816676494591167_" x="3.8782" y="0.5288" width="548.7705" height="222.2321"></rect> </defs> <clipPath id="SVGID_00000183208600982659116030000017952692716849068987_"> <use xlink:href="#SVGID_00000054258467686130434270000010226816676494591167_" overflow="visible"></use> </clipPath> <path clip-path="url(#SVGID_00000183208600982659116030000017952692716849068987_)" fill="#0033A1" d="M90.007,93.573 l5.8838,0.015l-0.0301-5.8464L81.8091,79.536L90.007,93.573z M96.5552,94.2525l-6.9287-0.015l-9.6617-16.553l16.553,9.6765 L96.5552,94.2525z"></path> </g> <g> <defs> <rect id="SVGID_00000074438158447135601420000001570136009005896340_" x="3.8782" y="0.5288" width="548.7705" height="222.2321"></rect> </defs> <clipPath id="SVGID_00000071521794530276546420000012109099945858591375_"> <use xlink:href="#SVGID_00000074438158447135601420000001570136009005896340_" overflow="visible"></use> </clipPath> <polygon clip-path="url(#SVGID_00000071521794530276546420000012109099945858591375_)" fill="#0033A1" points="140.1691,129.3726 133.7631,129.3575 133.7927,135.7266 149.0989,144.6714 "></polygon> </g> <g> <defs> <rect id="SVGID_00000090264236986727158400000005108602661058351035_" x="3.8782" y="0.5288" width="548.7705" height="222.2321"></rect> </defs> <clipPath id="SVGID_00000078757582270871157740000006120613887753195165_"> <use xlink:href="#SVGID_00000090264236986727158400000005108602661058351035_" overflow="visible"></use> </clipPath> <path clip-path="url(#SVGID_00000078757582270871157740000006120613887753195165_)" fill="#0033A1" d="M134.124,135.5368 l14.052,8.2129l-8.1979-14.0443l-5.8838-0.015L134.124,135.5368z M150.0203,145.594l-16.553-9.6765l-0.0374-6.8916l6.9287,0.0148 L150.0203,145.594z"></path> </g> <g> <defs> <rect id="SVGID_00000032610139324635230340000004637474098242349974_" x="3.8782" y="0.5288" width="548.7705" height="222.2321"></rect> </defs> <clipPath id="SVGID_00000026163710084807528810000001410702805014443144_"> <use xlink:href="#SVGID_00000032610139324635230340000004637474098242349974_" overflow="visible"></use> </clipPath> <path clip-path="url(#SVGID_00000026163710084807528810000001410702805014443144_)" fill="#CE0E2D" d="M26.1633,98.5068 l4.0021,13.0889l-4.0317,13.1634h-9.535L3.876,111.536l12.6407-13.0292C16.5167,98.5068,26.1633,98.5068,26.1633,98.5068z M114.9693,30.3753l-13.0887,4.0096l-0.0073,19.9504l13.029,22.3023l13.2231-22.3919V34.4073l-13.059-4.0019L114.9693,30.3753z M101.8583,169.0277v19.8385l13.059,4.0019l0.0971,0.0301l13.0959-4.0021v-19.9504l-13.029-22.3024L101.8583,169.0277z M171.1848,41.5976l4.8753-8.3253l-4.8607-17.4863l-17.8445,4.3006l-4.816,8.2355l9.3258,10.1247L171.1848,41.5976z M58.7994,181.6759l-4.8757,8.3326l4.868,17.4865l17.8377-4.3081l4.8156-8.228l-9.3253-10.1247L58.7994,181.6759z M188.5891,84.8059L185.58,71.3812l-9.9679-9.3928l-17.2548,9.8335l-0.0747,0.0447l-12.9246,22.362l25.9982,0.4033 L188.5891,84.8059z M41.3951,138.4751l3.0086,13.4245l9.9679,9.393l17.2548-9.8335l0.0747-0.0447l12.9246-22.3623l-25.9982-0.4031 L41.3951,138.4751z M72.1716,38.387l0.0971-0.0226l9.2884-10.0647l-4.868-8.3326l-17.6208-4.3455l-5.0029,17.6581l4.801,8.2355 L72.1716,38.387z M157.8122,184.894l-0.0971,0.0226l-9.2884,10.0572l4.8607,8.3401l17.6285,4.3455l5.0024-17.6581l-4.801-8.2357 L157.8122,184.894z M84.439,94.5571L71.41,72.0607L54.1179,62.332L44.15,71.8292l-2.9193,13.3726l17.382,9.7811L84.439,94.5571z M145.5448,128.7238l13.0289,22.4965l17.2922,9.7211l9.9679-9.4899l2.9193-13.3723l-17.382-9.7811L145.5448,128.7238z M213.3851,98.5219h-9.5345l-4.0395,13.1634l4.0094,13.0887h9.6466l12.6407-13.029L213.3851,98.5219z"></path> </g> <g> <defs> <rect id="SVGID_00000121999692257320120220000002316598182694779027_" x="3.8782" y="0.5288" width="548.7705" height="222.2321"></rect> </defs> <clipPath id="SVGID_00000043426728424062533320000017894109187737819303_"> <use xlink:href="#SVGID_00000121999692257320120220000002316598182694779027_" overflow="visible"></use> </clipPath> <polygon clip-path="url(#SVGID_00000043426728424062533320000017894109187737819303_)" fill="#0033A1" points="68.0099,98.557 84.7124,107.9796 90.6782,104.5376 87.1765,98.557 "></polygon> </g> <g> <defs> <rect id="SVGID_00000172398131733415423930000009670945861489392771_" x="3.8782" y="0.5288" width="548.7705" height="222.2321"></rect> </defs> <clipPath id="SVGID_00000181085070241223178300000017058945326537334421_"> <use xlink:href="#SVGID_00000172398131733415423930000009670945861489392771_" overflow="visible"></use> </clipPath> <path clip-path="url(#SVGID_00000181085070241223178300000017058945326537334421_)" fill="#0033A1" d="M57.605,98.5009H37.7667 l-4.0322,13.1634l4.0021,13.0889l19.9504,0.0073l22.3023-13.029L57.605,98.5009z M57.1197,118.3693l-6.9661-1.456l-5.1446,4.9056 l-0.7615-7.0634l-6.2643-3.3823l6.4885-2.9118l1.2765-6.9962l4.7787,5.264l7.0481-0.9483l-3.5391,6.1747L57.1197,118.3693z"></path> </g> <g> <defs> <rect id="SVGID_00000030481365412143078890000017957771713278416813_" x="3.8782" y="0.5288" width="548.7705" height="222.2321"></rect> </defs> <clipPath id="SVGID_00000015335196254898768840000016520409943731856566_"> <use xlink:href="#SVGID_00000030481365412143078890000017957771713278416813_" overflow="visible"></use> </clipPath> <polygon clip-path="url(#SVGID_00000015335196254898768840000016520409943731856566_)" fill="#0033A1" points="101.9117,158.6223 111.3345,141.9198 107.8925,135.9467 101.9117,139.456 "></polygon> </g> <g> <defs> <rect id="SVGID_00000172408543013068111510000006454915352067368886_" x="3.8782" y="0.5288" width="548.7705" height="222.2321"></rect> </defs> <clipPath id="SVGID_00000075844507895618701040000010258062817772196788_"> <use xlink:href="#SVGID_00000172408543013068111510000006454915352067368886_" overflow="visible"></use> </clipPath> <polygon clip-path="url(#SVGID_00000075844507895618701040000010258062817772196788_)" fill="#0033A1" points="31.1137,79.5182 41.0816,70.0209 44.0082,56.6485 35.5934,51.9148 18.1969,57.0815 22.8037,74.8442 "></polygon> </g> <g> <defs> <rect id="SVGID_00000107584245347750344270000010834092232101371782_" x="3.8782" y="0.5288" width="548.7705" height="222.2321"></rect> </defs> <clipPath id="SVGID_00000026138476964743215620000011464707497385056156_"> <use xlink:href="#SVGID_00000107584245347750344270000010834092232101371782_" overflow="visible"></use> </clipPath> <polygon clip-path="url(#SVGID_00000026138476964743215620000011464707497385056156_)" fill="#0033A1" points="84.7124,115.3549 68.0099,124.7776 87.1765,124.7776 90.6855,118.797 "></polygon> </g> <g> <defs> <rect id="SVGID_00000090995072333099688360000012751494606582803873_" x="3.8782" y="0.5288" width="548.7705" height="222.2321"></rect> </defs> <clipPath id="SVGID_00000119101653122759952210000010823536540241437314_"> <use xlink:href="#SVGID_00000090995072333099688360000012751494606582803873_" overflow="visible"></use> </clipPath> <polygon clip-path="url(#SVGID_00000119101653122759952210000010823536540241437314_)" fill="#0033A1" points="96.5834,129.0351 89.6547,129.0426 79.978,145.5883 96.546,135.9267 "></polygon> </g> <g> <defs> <rect id="SVGID_00000121999430641806014630000004305198608469407894_" x="3.8782" y="0.5288" width="548.7705" height="222.2321"></rect> </defs> <clipPath id="SVGID_00000034779266182180691960000002592075351325262007_"> <use xlink:href="#SVGID_00000121999430641806014630000004305198608469407894_" overflow="visible"></use> </clipPath> <polygon clip-path="url(#SVGID_00000034779266182180691960000002592075351325262007_)" fill="#0033A1" points="111.2766,81.3609 101.8538,64.6584 101.8538,83.8248 107.8346,87.334 "></polygon> </g> <g> <defs> <rect id="SVGID_00000003082532392380725980000017080874617729100692_" x="3.8782" y="0.5288" width="548.7705" height="222.2321"></rect> </defs> <clipPath id="SVGID_00000048500122602467722810000002757679113832390787_"> <use xlink:href="#SVGID_00000003082532392380725980000017080874617729100692_" overflow="visible"></use> </clipPath> <polygon clip-path="url(#SVGID_00000048500122602467722810000002757679113832390787_)" fill="#0033A1" points="143.1085,99.8232 139.6291,105.7739 145.6395,109.231 162.2823,99.7411 "></polygon> </g> <g> <defs> <rect id="SVGID_00000130623260363406685990000008312334312362940076_" x="3.8782" y="0.5288" width="548.7705" height="222.2321"></rect> </defs> <clipPath id="SVGID_00000088818526551476485250000008680525743971062164_"> <use xlink:href="#SVGID_00000130623260363406685990000008312334312362940076_" overflow="visible"></use> </clipPath> <path clip-path="url(#SVGID_00000088818526551476485250000008680525743971062164_)" fill="#0033A1" d="M165.3315,51.6142 l-9.3253-10.1244L142.686,38.339l-10.08,17.2177l-0.0146,25.8264l22.7202-12.6407L165.3315,51.6142z M148.8159,64.7927 l-3.5614-6.1599l-7.0932-0.5523l4.7563-5.2938l-1.6579-6.9139l6.4958,2.882l6.0706-3.7107l-0.7392,7.0707l5.4057,4.6217 l-6.9515,1.4859L148.8159,64.7927z"></path> </g> <g> <defs> <rect id="SVGID_00000023269866717098881840000003311566595636398732_" x="3.8782" y="0.5288" width="548.7705" height="222.2321"></rect> </defs> <clipPath id="SVGID_00000036939277333444071390000015313669741324223908_"> <use xlink:href="#SVGID_00000023269866717098881840000003311566595636398732_" overflow="visible"></use> </clipPath> <polygon clip-path="url(#SVGID_00000036939277333444071390000015313669741324223908_)" fill="#0033A1" points="133.4404,87.3527 133.4031,94.2443 140.3318,94.2368 150.0085,77.691 "></polygon> </g> <g> <defs> <rect id="SVGID_00000055678687422037892640000006339526505482940339_" x="3.8782" y="0.5288" width="548.7705" height="222.2321"></rect> </defs> <clipPath id="SVGID_00000065781633027179798750000007284285059689405571_"> <use xlink:href="#SVGID_00000055678687422037892640000006339526505482940339_" overflow="visible"></use> </clipPath> <polygon clip-path="url(#SVGID_00000065781633027179798750000007284285059689405571_)" fill="#0033A1" points="143.2051,123.2441 162.3789,123.2217 145.6765,113.8214 139.6883,117.3157 "></polygon> </g> <g> <defs> <rect id="SVGID_00000003802297508269023910000001057009347246499769_" x="3.8782" y="0.5288" width="548.7705" height="222.2321"></rect> </defs> <clipPath id="SVGID_00000158710982641821217970000001894381143417655486_"> <use xlink:href="#SVGID_00000003802297508269023910000001057009347246499769_" overflow="visible"></use> </clipPath> <polygon clip-path="url(#SVGID_00000158710982641821217970000001894381143417655486_)" fill="#0033A1" points="198.6668,79.0605 207.0515,74.2818 211.5763,56.706 193.9779,51.5167 185.6902,56.2429 188.7066,69.6752 "></polygon> </g> <g> <defs> <rect id="SVGID_00000141432192127494960630000017756096673204092598_" x="3.8782" y="0.5288" width="548.7705" height="222.2321"></rect> </defs> <clipPath id="SVGID_00000077294817253139681640000005779537121486461596_"> <use xlink:href="#SVGID_00000141432192127494960630000017756096673204092598_" overflow="visible"></use> </clipPath> <polygon clip-path="url(#SVGID_00000077294817253139681640000005779537121486461596_)" fill="#0033A1" points="31.3156,144.218 22.9309,148.9967 18.406,166.5725 36.0045,171.7618 44.2921,167.0431 41.2835,153.6108 "></polygon> </g> <g> <defs> <rect id="SVGID_00000060026165008276622460000001611886308512296077_" x="3.8782" y="0.5288" width="548.7705" height="222.2321"></rect> </defs> <clipPath id="SVGID_00000108295760311146879710000005103435937712354689_"> <use xlink:href="#SVGID_00000060026165008276622460000001611886308512296077_" overflow="visible"></use> </clipPath> <polygon clip-path="url(#SVGID_00000108295760311146879710000005103435937712354689_)" fill="#0033A1" points="128.0712,83.8225 128.0712,64.6562 118.6483,81.3587 122.0904,87.3317 "></polygon> </g> <g> <defs> <rect id="SVGID_00000177485911288312575470000008764249368577956238_" x="3.8782" y="0.5288" width="548.7705" height="222.2321"></rect> </defs> <clipPath id="SVGID_00000095317047559331151890000015197951176995410076_"> <use xlink:href="#SVGID_00000177485911288312575470000008764249368577956238_" overflow="visible"></use> </clipPath> <polygon clip-path="url(#SVGID_00000095317047559331151890000015197951176995410076_)" fill="#0033A1" points="127.3785,158.8098 127.0946,139.636 121.1142,136.2163 117.7168,142.2566 "></polygon> </g> <g> <defs> <rect id="SVGID_00000113329879936601651410000009316392744343840691_" x="3.8782" y="0.5288" width="548.7705" height="222.2321"></rect> </defs> <clipPath id="SVGID_00000155133105345303997630000013344792192230823821_"> <use xlink:href="#SVGID_00000113329879936601651410000009316392744343840691_" overflow="visible"></use> </clipPath> <path clip-path="url(#SVGID_00000155133105345303997630000013344792192230823821_)" fill="#0033A1" d="M155.2087,154.5156 l-22.4965-12.6929l-0.1344,25.9087v0.0971l9.9975,17.1281l13.4022-3.1508l9.2884-10.0574l-10.0126-17.158L155.2087,154.5156z M153.4615,171.0092l0.2388,7.108l-5.7862-4.129l-6.6826,2.4267l2.1355-6.7795l-4.3754-5.6074l7.1156-0.0672l3.9793-5.8911 l2.2549,6.7423l6.8394,1.9637L153.4615,171.0092z"></path> </g> <g> <defs> <rect id="SVGID_00000031929706305011296210000010662532939522962106_" x="3.8782" y="0.5288" width="548.7705" height="222.2321"></rect> </defs> <clipPath id="SVGID_00000075142628253711644340000001733964301060077499_"> <use xlink:href="#SVGID_00000031929706305011296210000010662532939522962106_" overflow="visible"></use> </clipPath> <path clip-path="url(#SVGID_00000075142628253711644340000001733964301060077499_)" fill="#0033A1" d="M196.251,111.6151 l-4.0021-13.0889l-19.9504-0.0073l-22.3023,13.029l22.3848,13.2306h19.8383L196.251,111.6151z M185.5143,114.6315l-1.2769,6.9962 l-4.7782-5.2715l-7.0486,0.9559l3.5391-6.1747l-3.0834-6.4138l6.9583,1.456l5.1519-4.9131l0.7692,7.0709l6.257,3.3821 L185.5143,114.6315z"></path> </g> <g> <defs> <rect id="SVGID_00000143595499946459190020000014133538621307876760_" x="3.8782" y="0.5288" width="548.7705" height="222.2321"></rect> </defs> <clipPath id="SVGID_00000079482267064383363070000004742463353299726486_"> <use xlink:href="#SVGID_00000143595499946459190020000014133538621307876760_" overflow="visible"></use> </clipPath> <polygon clip-path="url(#SVGID_00000079482267064383363070000004742463353299726486_)" fill="#0033A1" points="207.1828,148.4375 198.8728,143.7634 188.9049,153.2533 185.9778,166.6334 194.3853,171.3596 211.7896,166.2002 "></polygon> </g> <g> <defs> <rect id="SVGID_00000016755279965509036530000009378273460470603929_" x="3.8782" y="0.5288" width="548.7705" height="222.2321"></rect> </defs> <clipPath id="SVGID_00000059997708193379082070000007239863995599207087_"> <use xlink:href="#SVGID_00000016755279965509036530000009378273460470603929_" overflow="visible"></use> </clipPath> <polygon clip-path="url(#SVGID_00000059997708193379082070000007239863995599207087_)" fill="#0033A1" points="101.8743,13.2472 101.8743,22.7819 114.9406,26.7913 115.0377,26.8212 128.1263,22.8118 128.1263,13.1576 115.0974,0.5242 "></polygon> </g> <g> <defs> <rect id="SVGID_00000014604590623799613510000003714519200071674527_" x="3.8782" y="0.5288" width="548.7705" height="222.2321"></rect> </defs> <clipPath id="SVGID_00000075128486208726407210000004515184727790919866_"> <use xlink:href="#SVGID_00000014604590623799613510000003714519200071674527_" overflow="visible"></use> </clipPath> <polygon clip-path="url(#SVGID_00000075128486208726407210000004515184727790919866_)" fill="#0033A1" points="114.9497,196.4626 101.8611,200.4647 101.8533,210.1188 114.89,222.752 128.1131,210.0365 128.1131,200.4945 115.0468,196.4924 "></polygon> </g> <g> <defs> <rect id="SVGID_00000120530412086037223610000004088241557242778241_" x="3.8782" y="0.5288" width="548.7705" height="222.2321"></rect> </defs> <clipPath id="SVGID_00000023977849498549008050000011527447073452002994_"> <use xlink:href="#SVGID_00000120530412086037223610000004088241557242778241_" overflow="visible"></use> </clipPath> <path clip-path="url(#SVGID_00000023977849498549008050000011527447073452002994_)" fill="#0033A1" d="M64.6586,171.6642 l9.318,10.1245l13.3202,3.1508l10.08-17.2177l0.0146-25.8264l-22.7202,12.6482L64.6586,171.6642z M81.167,158.2992l3.5614,6.1599 l7.0932,0.5523l-4.7563,5.2938l1.6579,6.9139l-6.4958-2.882l-6.0629,3.7107l0.7314-7.0707l-5.4057-4.6217l6.9588-1.4859 L81.167,158.2992z"></path> </g> <g> <defs> <rect id="SVGID_00000072968835955963891160000017788998572559395471_" x="3.8782" y="0.5288" width="548.7705" height="222.2321"></rect> </defs> <clipPath id="SVGID_00000001640166318768407400000015116515334001736590_"> <use xlink:href="#SVGID_00000072968835955963891160000017788998572559395471_" overflow="visible"></use> </clipPath> <path clip-path="url(#SVGID_00000001640166318768407400000015116515334001736590_)" fill="#0033A1" d="M74.0076,41.4759 l-9.288,10.0572l10.0126,17.1505l0.0447,0.0747l22.4892,12.6929l0.1417-25.9084V55.453L87.4025,38.3175L74.0076,41.4759z M90.994,59.0668l-7.1156,0.0597l-3.9798,5.8986l-2.2549-6.7496l-6.839-1.9637l5.7193-4.2261l-0.2465-7.1156l5.794,4.129 l6.6826-2.4267l-2.1355,6.787L90.994,59.0668z"></path> </g> </g> </svg> 